<svg xmlns="http://www.w3.org/2000/svg" width="120" height="121" fill="none"><ellipse cx="60" cy="60.5" fill="#C9C995" stroke="#000" rx="59" ry="59.5"/><path fill="#C9C995" d="M58.954 96.195c-2-2.5-5.68-4.882-7.2-3.53s-.076 5.459 3.226 9.174 7.212 5.63 8.733 4.278c1.52-1.352-1.26-5.922-2.76-7.422"/><path stroke="#000" stroke-linejoin="round" d="M58.954 96.195c-2-2.5-5.68-4.882-7.2-3.53s-.076 5.459 3.226 9.174 7.212 5.63 8.733 4.278c1.52-1.352-1.26-5.922-2.76-7.422"/><path fill="#C9C995" d="m63.403 93.791-6 6z"/><path stroke="#000" stroke-linejoin="round" d="m63.403 93.791-6 6"/><path stroke="#000" d="M66.585 94.144H63.05V90.61"/><path stroke="#000" d="M68.304 92.536H64.77V89"/><ellipse cx="60" cy="39.5" fill="#C9C995" stroke="#000" rx="38" ry="38.5"/><path fill="#C9C995" stroke="#000" stroke-linejoin="round" d="M67.5 31.5c-4.462-2.994-7.5 3.218-7.5 3.218s-2.264-6.12-7-3.218c-6.537 4.006 2 13 7 16.5 5-3.5 12.538-11.995 7.5-16.5Z"/></svg>