<svg width="83" height="40" viewBox="0 0 83 40" fill="none" xmlns="http://www.w3.org/2000/svg">
<path d="M0.699454 39.3375C0.530026 39.3375 0.445312 39.2343 0.445312 39.0278V22.7435C0.445312 22.537 0.530026 22.4338 0.699454 22.4338H7.9679C8.13733 22.4338 8.22204 22.537 8.22204 22.7435V24.9887C8.22204 25.1952 8.13733 25.2984 7.9679 25.2984H3.59667V29.6598H7.33255C7.51892 29.6598 7.6121 29.763 7.6121 29.9695V32.1631C7.6121 32.3524 7.51892 32.447 7.33255 32.447H3.59667V39.0278C3.59667 39.2343 3.52042 39.3375 3.36794 39.3375H0.699454Z" fill="black"/>
<path d="M14.0266 39.4924C12.417 39.4924 11.1887 39.0192 10.3415 38.073C9.51134 37.1267 9.09625 35.7331 9.09625 33.8922V27.9307C9.09625 26.0554 9.51134 24.6446 10.3415 23.6983C11.1887 22.7521 12.417 22.279 14.0266 22.279C15.6362 22.279 16.8645 22.7521 17.7116 23.6983C18.5588 24.6446 18.9823 26.0554 18.9823 27.9307V33.8922C18.9823 35.7331 18.5588 37.1267 17.7116 38.073C16.8645 39.0192 15.6362 39.4924 14.0266 39.4924ZM14.0266 36.602C14.6535 36.602 15.1109 36.3869 15.399 35.9568C15.687 35.5095 15.831 34.7783 15.831 33.7632V28.034C15.831 27.0017 15.687 26.2705 15.399 25.8403C15.1109 25.393 14.6535 25.1694 14.0266 25.1694C13.4167 25.1694 12.9592 25.393 12.6542 25.8403C12.3662 26.2705 12.2222 27.0017 12.2222 28.034V33.7632C12.2222 34.7783 12.3662 35.5095 12.6542 35.9568C12.9592 36.3869 13.4167 36.602 14.0266 36.602Z" fill="black"/>
<path d="M25.2386 39.4924C23.629 39.4924 22.4261 39.0106 21.6298 38.0472C20.8335 37.0837 20.4353 35.6213 20.4353 33.6599V22.7177C20.4353 22.5284 20.52 22.4338 20.6895 22.4338H23.3579C23.5104 22.4338 23.5867 22.5284 23.5867 22.7177V33.5825C23.5867 34.7008 23.7137 35.4836 23.9679 35.931C24.239 36.3783 24.6625 36.602 25.2386 36.602C25.8316 36.602 26.2552 36.3783 26.5093 35.931C26.7804 35.4836 26.9159 34.7008 26.9159 33.5825V22.7177C26.9159 22.5284 27.0006 22.4338 27.1701 22.4338H29.8131C29.9826 22.4338 30.0673 22.5284 30.0673 22.7177V33.6599C30.0673 35.6213 29.6607 37.0837 28.8474 38.0472C28.0511 39.0106 26.8482 39.4924 25.2386 39.4924Z" fill="black"/>
<path d="M32.2319 39.3375C32.0624 39.3375 31.9777 39.2343 31.9777 39.0278V22.7435C31.9777 22.537 32.0624 22.4338 32.2319 22.4338H35.5611C35.7136 22.4338 35.8068 22.5026 35.8407 22.6403L37.9246 30.4856C38.0432 30.9158 38.1618 31.3975 38.2804 31.9309C38.416 32.447 38.543 32.9717 38.6616 33.5051C38.7802 34.0384 38.8734 34.503 38.9412 34.8987H38.992C38.9751 34.5546 38.9497 34.1417 38.9158 33.6599C38.8819 33.1782 38.848 32.6793 38.8141 32.1631C38.7972 31.647 38.7802 31.148 38.7633 30.6663C38.7633 30.1846 38.7633 29.7716 38.7633 29.4276V22.7177C38.7633 22.5284 38.848 22.4338 39.0174 22.4338H41.4318C41.6181 22.4338 41.7113 22.5284 41.7113 22.7177V39.0278C41.7113 39.2343 41.6266 39.3375 41.4572 39.3375H38.1533C38.0178 39.3375 37.9246 39.2687 37.8738 39.1311L35.739 31.4147C35.5357 30.6577 35.3493 29.8921 35.1799 29.1179C35.0274 28.3264 34.8919 27.6124 34.7733 26.9759H34.7224C34.7563 27.4748 34.7902 28.0684 34.8241 28.7566C34.858 29.4448 34.8834 30.1416 34.9003 30.8469C34.9342 31.5351 34.9512 32.1287 34.9512 32.6276V39.0278C34.9512 39.2343 34.858 39.3375 34.6716 39.3375H32.2319Z" fill="black"/>
<path d="M43.997 39.3375C43.7937 39.3375 43.692 39.2343 43.692 39.0278V22.7435C43.692 22.537 43.7937 22.4338 43.997 22.4338H47.6312C49.5458 22.4338 50.9859 23.0274 51.9516 24.2145C52.9174 25.3844 53.4002 27.1737 53.4002 29.5824V31.7502C53.4002 34.2965 52.9258 36.1976 51.9771 37.4536C51.0283 38.7096 49.622 39.3375 47.7583 39.3375H43.997ZM46.8434 36.4729H47.6821C48.58 36.4729 49.2323 36.0944 49.639 35.3374C50.0456 34.5632 50.2489 33.3761 50.2489 31.776V29.5824C50.2489 28.1372 50.0371 27.0619 49.6135 26.3565C49.2069 25.6511 48.5292 25.2984 47.5804 25.2984H46.8434V36.4729Z" fill="black"/>
<path d="M55.0837 39.3375C54.9143 39.3375 54.8296 39.2343 54.8296 39.0278V22.7435C54.8296 22.537 54.9143 22.4338 55.0837 22.4338H62.3522C62.5216 22.4338 62.6063 22.537 62.6063 22.7435V24.9887C62.6063 25.1952 62.5216 25.2984 62.3522 25.2984H57.981V29.4276H61.9456C62.115 29.4276 62.1997 29.5308 62.1997 29.7372V31.8534C62.1997 32.0427 62.115 32.1373 61.9456 32.1373H57.981V36.4729H62.3522C62.5216 36.4729 62.6063 36.5762 62.6063 36.7826V39.0278C62.6063 39.2343 62.5216 39.3375 62.3522 39.3375H55.0837Z" fill="black"/>
<path d="M64.3847 39.3375C64.2153 39.3375 64.1306 39.2343 64.1306 39.0278V22.7435C64.1306 22.537 64.2153 22.4338 64.3847 22.4338H68.146C69.8572 22.4338 71.1025 22.8381 71.8819 23.6467C72.6782 24.4382 73.0764 25.7027 73.0764 27.4404C73.0764 28.6791 72.9069 29.677 72.5681 30.434C72.2462 31.1738 71.7548 31.7072 71.094 32.0341L71.0686 32.0857L73.7117 38.9762C73.7795 39.2171 73.7117 39.3375 73.5084 39.3375H70.6366C70.4841 39.3375 70.3825 39.2687 70.3316 39.1311L68.146 32.6793H67.2819V39.0278C67.2819 39.2343 67.1972 39.3375 67.0278 39.3375H64.3847ZM67.2819 29.9953H68.1714C68.7983 29.9953 69.2473 29.7975 69.5184 29.4017C69.7895 29.006 69.925 28.4039 69.925 27.5952C69.925 26.7866 69.781 26.2016 69.493 25.8403C69.2049 25.479 68.7559 25.2984 68.146 25.2984H67.2819V29.9953Z" fill="black"/>
<path d="M78.51 39.4924C77.4257 39.4924 76.5531 39.2945 75.8924 38.8988C75.2485 38.4859 74.7911 37.9009 74.52 37.1439C74.2659 36.3697 74.1811 35.4664 74.2659 34.4342C74.2828 34.2105 74.3675 34.0987 74.52 34.0987H77.1122C77.2647 34.0987 77.3325 34.2019 77.3156 34.4083C77.2478 35.131 77.3156 35.6987 77.5189 36.1116C77.7391 36.5073 78.0865 36.7052 78.5608 36.7052C79.0014 36.7052 79.3233 36.5762 79.5266 36.3181C79.7299 36.06 79.8316 35.6385 79.8316 35.0535C79.8316 34.5546 79.7468 34.1245 79.5774 33.7632C79.4249 33.3847 79.1623 33.0578 78.7896 32.7825L76.6294 31.0792C75.8331 30.4598 75.2401 29.7975 74.8504 29.0921C74.4607 28.3867 74.2743 27.5092 74.2913 26.4597C74.3082 25.1177 74.664 24.0855 75.3587 23.3629C76.0533 22.6403 77.0868 22.279 78.4592 22.279C80.001 22.279 81.1361 22.7091 81.8647 23.5693C82.5932 24.4123 82.8897 25.6167 82.7542 27.1823C82.7372 27.4232 82.6441 27.5436 82.4746 27.5436H79.857C79.6875 27.5436 79.6113 27.4232 79.6282 27.1823C79.696 26.5802 79.6367 26.0812 79.4503 25.6855C79.2809 25.2726 78.9844 25.0661 78.5608 25.0661C78.205 25.0661 77.9255 25.1866 77.7222 25.4274C77.5358 25.6511 77.4341 26.0124 77.4172 26.5113C77.4172 27.0103 77.5189 27.4318 77.7222 27.7759C77.9255 28.1028 78.1966 28.4039 78.5354 28.6791L80.6702 30.3308C81.2463 30.7609 81.7037 31.1996 82.0426 31.647C82.3814 32.0771 82.6186 32.5674 82.7542 33.118C82.9067 33.6513 82.9829 34.2965 82.9829 35.0535C82.966 36.4815 82.6017 37.5826 81.8901 38.3569C81.1785 39.1139 80.0518 39.4924 78.51 39.4924Z" fill="black"/>
<path d="M32.4671 19.2231C32.2977 19.2231 32.213 19.1198 32.213 18.9134V2.62902C32.213 2.42257 32.2977 2.31934 32.4671 2.31934H35.9235C37.5838 2.31934 38.8037 2.77526 39.5831 3.68712C40.3794 4.58177 40.7776 5.97536 40.7776 7.86789C40.7776 9.65719 40.3709 11.025 39.5577 11.9712C38.7444 12.9175 37.5584 13.3906 35.9997 13.3906H35.3643V18.9134C35.3643 19.1198 35.2796 19.2231 35.1102 19.2231H32.4671ZM35.3643 10.526H35.9235C36.5165 10.526 36.9485 10.311 37.2196 9.88085C37.5076 9.45073 37.6516 8.78835 37.6516 7.8937C37.6516 6.93023 37.5161 6.24203 37.245 5.82912C36.9739 5.399 36.5419 5.18394 35.9489 5.18394H35.3643V10.526Z" fill="black"/>
<path d="M41.8561 19.2231C41.6697 19.2231 41.5765 19.1198 41.5765 18.9134V2.62902C41.5765 2.42257 41.6697 2.31934 41.8561 2.31934H44.4483C44.6347 2.31934 44.7279 2.42257 44.7279 2.62902V16.3585H48.7433C48.9297 16.3585 49.0229 16.4617 49.0229 16.6682V18.9134C49.0229 19.1198 48.9297 19.2231 48.7433 19.2231H41.8561Z" fill="black"/>
<path d="M50.5668 19.2231C50.3973 19.2231 50.3126 19.1198 50.3126 18.9134V2.62902C50.3126 2.42257 50.3973 2.31934 50.5668 2.31934H53.2098C53.3793 2.31934 53.464 2.42257 53.464 2.62902V18.9134C53.464 19.1198 53.3793 19.2231 53.2098 19.2231H50.5668Z" fill="black"/>
<path d="M56.4666 19.2231C56.2972 19.2231 56.2125 19.1198 56.2125 18.9134V2.62902C56.2125 2.42257 56.2972 2.31934 56.4666 2.31934H63.7351C63.9045 2.31934 63.9892 2.42257 63.9892 2.62902V4.87425C63.9892 5.08071 63.9045 5.18394 63.7351 5.18394H59.3638V9.54536H63.0997C63.2861 9.54536 63.3793 9.64859 63.3793 9.85505V12.0487C63.3793 12.2379 63.2861 12.3325 63.0997 12.3325H59.3638V18.9134C59.3638 19.1198 59.2876 19.2231 59.1351 19.2231H56.4666Z" fill="black"/>
<path d="M68.2346 19.2231C68.0651 19.2231 67.9804 19.1198 67.9804 18.9134V5.18394H65.3119C65.1425 5.18394 65.0578 5.08071 65.0578 4.87425V2.62902C65.0578 2.42257 65.1425 2.31934 65.3119 2.31934H73.7494C73.9189 2.31934 74.0036 2.42257 74.0036 2.62902V4.87425C74.0036 5.08071 73.9189 5.18394 73.7494 5.18394H71.1064V18.9134C71.1064 19.1198 71.0216 19.2231 70.8522 19.2231H68.2346Z" fill="black"/>
<path fill-rule="evenodd" clip-rule="evenodd" d="M26.4768 1.73844C26.8952 2.37388 27.0715 3.17827 27.0715 4.01479C27.0715 7.0387 25.5936 11.4886 23.6068 14.9509C23.8775 15.6964 24.1966 16.1941 24.4952 16.475C24.8001 16.7618 25.059 16.8189 25.3921 16.7233C25.8321 16.5969 26.5414 16.1488 27.4574 14.9759C28.0032 14.2769 28.5886 13.3638 29.2038 12.2029L31.5958 13.4445C30.9139 14.7351 30.2379 15.7994 29.5712 16.6532C28.4999 18.025 27.3541 18.9796 26.1291 19.3313C24.7973 19.7137 23.5815 19.3244 22.66 18.4578C22.3709 18.1859 22.1133 17.871 21.8846 17.5234C21.2171 18.3655 20.4976 19.1014 19.7401 19.654C18.4056 20.6274 16.7075 21.1809 15.0171 20.2987C13.2426 19.3726 12.8307 17.5312 12.8262 15.9245C12.8216 14.3061 13.2201 12.4265 13.5752 10.7603L13.5827 10.7248C13.9544 8.9807 14.2764 7.4699 14.2848 6.29712C14.289 5.71746 14.2118 5.35179 14.1124 5.13683C14.0362 4.97183 13.9474 4.88477 13.7716 4.82092C13.1922 4.61043 12.6885 4.75523 12.2408 5.35112C11.7441 6.01223 11.3692 7.22679 11.5223 8.86713L8.84397 9.12119C8.64651 7.006 9.08665 5.0576 10.0962 3.71391C11.1548 2.30499 12.8486 1.60315 14.6837 2.26978C15.5726 2.59268 16.1898 3.21035 16.5509 3.99142C16.8889 4.72253 16.9805 5.54429 16.9749 6.31675C16.9645 7.77412 16.5915 9.52085 16.2514 11.1139C16.236 11.1862 16.2206 11.2582 16.2053 11.3299C15.834 13.0726 15.5128 14.6478 15.5164 15.9168C15.52 17.1977 15.844 17.6766 16.2539 17.8905C16.6823 18.1141 17.2621 18.1143 18.1629 17.4571C18.9776 16.8629 19.8506 15.8558 20.6912 14.5571C20.0359 11.7419 20.1308 7.99572 21.1587 4.28707C21.4426 3.26281 21.8418 2.41884 22.3469 1.79603C22.8423 1.18528 23.5382 0.677311 24.3924 0.630024C25.3062 0.579439 26.0393 1.07398 26.4768 1.73844ZM22.976 10.0255C23.8503 7.78411 24.3814 5.56513 24.3814 4.01479C24.3814 3.85451 24.3698 3.72203 24.3528 3.61432C24.1641 3.88212 23.9403 4.32894 23.7497 5.01674C23.2692 6.7502 23.0259 8.46121 22.976 10.0255Z" fill="black"/>
</svg>
