<svg width="70" height="63" viewBox="0 0 70 63" fill="none" xmlns="http://www.w3.org/2000/svg">
<path fill-rule="evenodd" clip-rule="evenodd" d="M46.026 14.3035C46.8375 15.5252 47.1795 17.0718 47.1795 18.6802C47.1795 24.5048 44.3042 33.0663 40.4601 39.7067C40.905 40.9212 41.4324 41.8368 41.9793 42.4314C42.5165 43.0156 42.9555 43.1724 43.293 43.1938C43.6593 43.217 44.3406 43.1061 45.3795 42.3409C47.5491 40.7428 50.4466 36.8938 53.6973 29.4785L58.4762 31.5706C55.1365 39.1889 51.7879 44.0977 48.4751 46.5378C46.7727 47.7918 44.9036 48.5201 42.9629 48.3972C40.9934 48.2724 39.3686 47.2977 38.1379 45.9595C37.7724 45.5622 37.4334 45.1249 37.12 44.6527C35.8938 46.186 34.5804 47.5325 33.2032 48.5701C30.5752 50.5503 27.1866 51.7404 23.8009 49.9887C20.3595 48.2082 19.5607 44.6677 19.5519 41.5787C19.5431 38.4669 20.3158 34.8532 21.0044 31.6496L21.0191 31.5813C21.74 28.228 22.3644 25.3232 22.3807 23.0683C22.3888 21.9538 22.2392 21.2508 22.0464 20.8375C21.8985 20.5202 21.7264 20.3528 21.3855 20.2301C20.2617 19.8254 19.2848 20.1038 18.4165 21.2495C17.4532 22.5206 16.7262 24.8558 17.0232 28.0096L11.8287 28.4981C11.4457 24.4313 12.2994 20.6851 14.2573 18.1017C16.3103 15.3928 19.5954 14.0434 23.1544 15.3251C24.8782 15.9459 26.0753 17.1335 26.7755 18.6352C27.4311 20.0409 27.6087 21.6209 27.598 23.1061C27.5777 25.9081 26.8544 29.2665 26.1948 32.3294C26.1649 32.4684 26.1351 32.6069 26.1054 32.7446C25.3852 36.0953 24.7623 39.1239 24.7693 41.5639C24.7763 44.0266 25.4046 44.9473 26.1997 45.3587C27.0504 45.7988 28.2263 45.7903 30.0621 44.4071C31.6045 43.2449 33.2379 41.3502 34.8054 38.9493C34.487 37.5929 34.2677 36.157 34.1395 34.6875C33.7356 30.0537 34.1955 24.6282 35.712 19.2037C36.2626 17.2343 37.0369 15.6117 38.0165 14.4142C38.9772 13.2399 40.327 12.2633 41.9836 12.1724C43.7557 12.0751 45.1775 13.0259 46.026 14.3035ZM39.2366 30.2367C40.9342 25.9222 41.9621 21.6566 41.9621 18.6802C41.9621 18.372 41.9396 18.1173 41.9068 17.9102C41.5408 18.4251 41.1067 19.2842 40.737 20.6066C39.81 23.9223 39.334 27.2137 39.2366 30.2367ZM42.4483 17.3442C42.4483 17.3443 42.4461 17.3455 42.4415 17.3474C42.446 17.345 42.4483 17.3441 42.4483 17.3442Z" fill="black"/>
</svg>
